<svg id="svg" version="1.1" width="400" height="338.40000000000003" viewBox="0 0 400 338.40000000000003" xmlns="http://www.w3.org/2000/svg" xmlns:xlink="http://www.w3.org/1999/xlink" ><g id="svgg"><path id="path0" d="M199.008 1.411 C 198.775 2.187,198.238 3.595,197.815 4.541 C 197.391 5.487,196.765 7.022,196.424 7.953 C 196.084 8.883,195.719 9.721,195.615 9.814 C 195.511 9.907,195.136 10.821,194.782 11.844 C 194.428 12.868,193.803 14.467,193.392 15.398 C 192.981 16.328,192.366 17.851,192.025 18.782 C 191.684 19.712,191.308 20.550,191.189 20.643 C 191.070 20.736,190.888 21.117,190.784 21.489 C 190.420 22.800,189.004 26.567,188.813 26.734 C 188.707 26.827,188.260 27.893,187.819 29.103 C 187.378 30.313,186.837 31.607,186.616 31.980 C 186.395 32.352,185.855 33.723,185.415 35.025 C 184.975 36.328,184.527 37.470,184.418 37.563 C 184.310 37.657,183.860 38.723,183.419 39.932 C 182.978 41.142,182.437 42.437,182.217 42.809 C 181.996 43.181,181.456 44.552,181.016 45.854 C 180.576 47.157,180.119 48.299,180.001 48.393 C 179.882 48.486,179.435 49.552,179.006 50.761 C 178.578 51.971,178.119 53.113,177.985 53.299 C 177.852 53.486,177.337 54.775,176.839 56.164 C 176.342 57.554,175.816 58.848,175.671 59.041 C 175.525 59.233,175.052 60.381,174.619 61.591 C 174.186 62.800,173.722 63.942,173.588 64.129 C 173.454 64.315,172.949 65.570,172.467 66.918 C 171.985 68.266,171.282 69.973,170.905 70.711 C 170.528 71.450,170.220 72.209,170.220 72.398 C 170.220 72.587,169.785 73.697,169.253 74.865 C 168.722 76.033,168.090 77.591,167.850 78.328 C 167.610 79.066,167.069 80.360,166.649 81.205 C 166.229 82.050,165.688 83.426,165.446 84.264 C 165.205 85.102,164.900 85.863,164.769 85.956 C 164.638 86.050,164.138 87.249,163.658 88.622 C 163.178 89.995,162.654 91.290,162.494 91.498 C 162.333 91.707,161.839 92.944,161.395 94.247 C 160.951 95.550,160.472 96.700,160.330 96.804 C 160.188 96.907,159.693 98.107,159.229 99.470 C 158.766 100.833,158.252 102.119,158.087 102.328 C 157.922 102.536,157.593 103.316,157.356 104.061 C 157.119 104.805,156.512 106.328,156.007 107.445 C 155.503 108.562,154.817 110.313,154.483 111.337 C 154.150 112.360,153.768 113.274,153.635 113.367 C 153.503 113.460,153.048 114.526,152.625 115.736 C 152.203 116.946,151.593 118.469,151.271 119.120 C 150.949 119.772,150.413 121.142,150.081 122.166 C 149.749 123.190,149.370 124.103,149.239 124.196 C 149.108 124.289,148.662 125.392,148.247 126.646 C 147.833 127.900,147.365 129.006,147.208 129.103 C 147.051 129.200,146.508 130.534,146.000 132.068 C 145.492 133.601,144.977 134.932,144.856 135.025 C 144.735 135.118,144.356 135.956,144.015 136.887 C 143.675 137.817,143.058 139.340,142.644 140.271 C 142.231 141.201,141.619 142.800,141.286 143.824 C 140.952 144.848,140.571 145.761,140.440 145.854 C 140.309 145.948,139.867 146.997,139.459 148.187 C 139.050 149.377,138.502 150.764,138.240 151.269 C 137.979 151.775,137.431 153.162,137.022 154.351 C 136.613 155.541,136.172 156.591,136.041 156.684 C 135.910 156.777,135.468 157.826,135.059 159.016 C 134.651 160.206,134.102 161.593,133.841 162.098 C 133.580 162.604,133.034 163.991,132.628 165.180 C 132.222 166.370,131.757 167.512,131.595 167.719 C 131.432 167.925,130.996 168.975,130.626 170.051 C 130.256 171.127,129.816 172.176,129.649 172.383 C 129.482 172.589,128.920 173.976,128.400 175.465 C 127.881 176.954,127.273 178.477,127.049 178.849 C 126.825 179.222,126.385 180.324,126.070 181.299 C 125.755 182.274,125.355 183.160,125.180 183.268 C 125.005 183.376,124.950 183.606,125.057 183.780 C 125.164 183.953,125.090 184.095,124.893 184.095 C 124.696 184.095,124.535 184.411,124.535 184.798 C 124.535 185.725,123.152 187.004,120.355 188.663 C 119.100 189.408,117.173 190.588,116.073 191.286 C 114.973 191.984,113.938 192.555,113.773 192.555 C 113.607 192.555,113.196 192.860,112.860 193.232 C 112.523 193.604,112.106 193.909,111.934 193.909 C 111.762 193.909,110.833 194.418,109.871 195.040 C 107.471 196.592,106.028 197.458,104.183 198.451 C 103.319 198.916,102.406 199.499,102.153 199.746 C 101.899 199.993,101.007 200.549,100.169 200.981 C 99.332 201.413,98.570 201.881,98.477 202.022 C 98.384 202.163,97.699 202.607,96.954 203.010 C 96.210 203.412,94.535 204.409,93.232 205.226 C 91.929 206.042,90.254 207.045,89.509 207.453 C 88.765 207.862,88.080 208.312,87.986 208.453 C 87.893 208.594,87.029 209.108,86.065 209.594 C 85.101 210.080,84.221 210.624,84.111 210.803 C 84.001 210.981,83.190 211.479,82.310 211.909 C 81.431 212.338,80.613 212.824,80.495 212.987 C 80.271 213.295,78.232 214.514,75.296 216.095 C 74.365 216.596,73.482 217.215,73.333 217.471 C 73.185 217.727,72.877 217.936,72.649 217.936 C 72.421 217.936,71.405 218.482,70.390 219.151 C 69.375 219.819,68.084 220.602,67.521 220.890 C 66.958 221.178,66.421 221.526,66.328 221.662 C 66.235 221.798,65.369 222.321,64.404 222.823 C 63.438 223.326,62.468 223.955,62.247 224.221 C 62.027 224.486,61.659 224.704,61.431 224.704 C 61.202 224.704,60.402 225.148,59.653 225.691 C 58.904 226.234,57.700 226.997,56.979 227.386 C 56.258 227.776,54.679 228.722,53.469 229.487 C 52.259 230.253,50.812 231.147,50.254 231.474 C 48.420 232.548,45.188 234.511,44.670 234.864 C 43.488 235.672,40.340 237.594,39.086 238.274 C 38.342 238.678,37.657 239.120,37.563 239.257 C 37.470 239.393,36.606 239.903,35.642 240.389 C 34.678 240.875,33.783 241.444,33.654 241.652 C 33.525 241.861,32.944 242.244,32.361 242.504 C 31.779 242.764,30.237 243.661,28.934 244.497 C 27.631 245.334,25.880 246.402,25.042 246.870 C 24.205 247.338,22.453 248.407,21.151 249.245 C 19.848 250.084,18.135 251.089,17.343 251.480 C 16.552 251.870,15.905 252.293,15.905 252.420 C 15.905 252.547,15.070 253.073,14.050 253.590 C 13.030 254.107,12.105 254.674,11.996 254.850 C 11.887 255.027,11.308 255.376,10.708 255.626 C 10.108 255.877,9.385 256.315,9.100 256.600 C 8.815 256.885,7.831 257.517,6.913 258.003 C -0.705 262.045,-1.143 262.838,3.030 265.025 C 3.865 265.463,4.848 266.087,5.214 266.413 C 5.581 266.739,6.052 267.005,6.261 267.005 C 6.470 267.005,6.954 267.297,7.337 267.654 C 7.720 268.010,8.852 268.716,9.854 269.221 C 10.856 269.726,11.751 270.244,11.844 270.371 C 12.000 270.584,14.050 271.838,17.195 273.644 C 17.882 274.038,19.433 274.988,20.643 275.755 C 21.853 276.523,23.376 277.455,24.027 277.828 C 24.679 278.201,26.277 279.191,27.580 280.029 C 28.883 280.866,30.711 281.953,31.641 282.445 C 32.572 282.936,33.409 283.449,33.503 283.584 C 33.596 283.720,34.159 284.081,34.754 284.386 C 35.349 284.691,36.514 285.397,37.341 285.956 C 38.169 286.514,38.986 286.971,39.156 286.971 C 39.327 286.971,39.778 287.262,40.159 287.617 C 40.540 287.972,41.521 288.602,42.338 289.016 C 43.155 289.430,43.900 289.881,43.993 290.017 C 44.086 290.153,44.772 290.588,45.516 290.984 C 46.261 291.380,47.936 292.382,49.239 293.212 C 50.541 294.041,52.369 295.128,53.299 295.627 C 54.230 296.126,55.068 296.646,55.161 296.783 C 55.254 296.920,55.939 297.363,56.684 297.767 C 58.040 298.502,61.293 300.498,62.292 301.207 C 62.920 301.654,65.509 303.155,67.766 304.383 C 68.651 304.863,69.374 305.406,69.374 305.589 C 69.374 305.772,69.568 305.922,69.805 305.922 C 70.042 305.922,71.069 306.471,72.089 307.143 C 73.108 307.814,74.552 308.672,75.296 309.050 C 76.041 309.427,76.726 309.846,76.819 309.981 C 76.912 310.116,77.449 310.463,78.012 310.751 C 78.575 311.040,79.866 311.822,80.881 312.490 C 81.895 313.159,82.901 313.706,83.115 313.706 C 83.329 313.706,83.703 313.945,83.946 314.238 C 84.189 314.531,85.007 315.084,85.764 315.468 C 86.521 315.851,87.217 316.277,87.310 316.414 C 87.403 316.551,88.240 317.067,89.171 317.561 C 90.102 318.054,91.777 319.058,92.893 319.791 C 94.010 320.523,95.685 321.522,96.616 322.009 C 97.547 322.497,98.536 323.094,98.816 323.336 C 99.095 323.578,99.842 324.039,100.476 324.361 C 101.110 324.682,101.795 325.087,101.999 325.261 C 102.491 325.680,105.752 327.692,107.445 328.621 C 108.190 329.029,108.875 329.476,108.968 329.613 C 109.061 329.750,109.975 330.293,110.998 330.819 C 112.022 331.345,112.936 331.871,113.029 331.987 C 113.122 332.103,114.645 333.059,116.413 334.110 C 118.181 335.162,119.794 336.162,119.997 336.333 C 120.516 336.770,123.630 338.409,123.940 338.409 C 124.314 338.409,124.254 336.910,123.864 336.520 C 123.681 336.338,123.093 335.355,122.557 334.338 C 119.993 329.467,119.040 327.738,118.836 327.581 C 118.713 327.488,118.166 326.459,117.620 325.296 C 117.074 324.133,116.541 323.180,116.435 323.180 C 116.330 323.179,115.956 322.456,115.605 321.572 C 115.253 320.689,114.788 319.814,114.570 319.628 C 114.353 319.442,113.688 318.299,113.093 317.090 C 112.498 315.880,111.492 313.976,110.856 312.860 C 110.221 311.743,109.298 310.068,108.806 309.137 C 108.314 308.206,107.393 306.531,106.760 305.415 C 106.127 304.298,105.132 302.470,104.549 301.354 C 103.966 300.237,103.009 298.462,102.422 297.410 C 100.469 293.913,94.259 282.526,93.434 280.930 C 92.987 280.065,92.528 279.281,92.414 279.188 C 92.301 279.095,91.781 278.181,91.261 277.157 C 89.600 273.892,88.362 271.589,87.986 271.066 C 87.786 270.787,87.209 269.775,86.704 268.818 C 86.200 267.862,85.357 266.263,84.832 265.265 C 84.307 264.268,83.762 263.333,83.621 263.188 C 83.378 262.939,84.874 259.519,85.604 258.651 C 85.790 258.431,86.364 257.365,86.880 256.282 C 87.395 255.200,87.904 254.239,88.010 254.146 C 88.116 254.052,89.315 251.920,90.674 249.408 C 92.034 246.895,93.611 244.002,94.180 242.978 C 96.499 238.802,97.105 237.660,97.816 236.125 C 98.225 235.241,98.666 234.518,98.795 234.518 C 98.924 234.518,99.379 233.674,99.807 232.643 C 100.234 231.611,100.767 230.583,100.991 230.358 C 101.215 230.133,101.817 229.112,102.329 228.088 C 103.795 225.155,105.364 222.242,105.973 221.320 C 106.589 220.388,115.735 203.601,118.695 197.970 C 119.722 196.015,120.658 194.340,120.775 194.247 C 120.893 194.154,121.368 193.252,121.831 192.242 C 122.294 191.232,122.826 190.234,123.012 190.024 C 123.198 189.815,123.673 189.042,124.067 188.307 C 124.611 187.292,125.343 186.671,127.112 185.720 C 129.746 184.306,131.293 183.468,136.834 180.457 C 138.975 179.294,140.878 178.342,141.063 178.342 C 141.248 178.342,141.450 178.218,141.512 178.067 C 141.574 177.916,143.299 176.901,145.347 175.812 C 147.394 174.723,149.146 173.740,149.239 173.629 C 149.332 173.517,150.245 173.000,151.269 172.479 C 155.110 170.526,156.863 169.584,157.191 169.299 C 157.377 169.137,158.291 168.641,159.222 168.197 C 160.152 167.753,160.990 167.293,161.083 167.174 C 161.176 167.056,162.927 166.068,164.975 164.980 C 167.022 163.892,168.773 162.911,168.866 162.800 C 168.959 162.689,169.862 162.220,170.872 161.756 C 171.882 161.293,172.871 160.761,173.071 160.575 C 173.271 160.389,174.272 159.815,175.296 159.299 C 176.320 158.783,178.223 157.774,179.526 157.056 C 180.829 156.338,182.575 155.421,183.406 155.019 C 184.237 154.617,184.999 154.157,185.098 153.996 C 185.198 153.835,186.117 153.299,187.140 152.804 C 188.164 152.309,189.915 151.387,191.032 150.753 C 192.149 150.120,193.976 149.131,195.093 148.555 C 196.210 147.979,197.757 147.132,198.532 146.672 C 199.978 145.814,201.483 146.057,202.902 147.377 C 203.101 147.563,204.091 148.095,205.101 148.558 C 206.111 149.022,207.014 149.488,207.107 149.595 C 207.275 149.788,218.897 156.167,221.489 157.488 C 222.234 157.868,223.026 158.357,223.250 158.576 C 223.474 158.794,224.349 159.257,225.194 159.605 C 226.040 159.952,226.732 160.323,226.733 160.428 C 226.734 160.534,227.686 161.067,228.849 161.613 C 230.013 162.159,231.041 162.694,231.134 162.801 C 231.227 162.908,233.816 164.343,236.887 165.990 C 239.958 167.637,242.547 169.072,242.640 169.179 C 242.816 169.383,245.554 170.866,248.731 172.480 C 249.755 173.000,250.668 173.519,250.761 173.633 C 250.854 173.746,251.638 174.205,252.503 174.652 C 253.368 175.100,256.995 177.064,260.563 179.019 C 268.131 183.165,269.727 184.029,272.927 185.721 C 274.804 186.714,275.437 187.255,275.973 188.326 C 276.345 189.070,276.744 189.755,276.859 189.848 C 276.975 189.941,277.911 191.616,278.939 193.570 C 279.968 195.525,281.321 198.057,281.945 199.199 C 282.569 200.340,285.047 204.909,287.452 209.351 C 289.857 213.793,291.913 217.504,292.020 217.597 C 292.128 217.690,292.649 218.604,293.178 219.628 C 295.468 224.060,296.110 225.237,296.460 225.646 C 296.665 225.885,297.228 226.951,297.711 228.015 C 298.194 229.079,298.710 230.031,298.858 230.130 C 299.006 230.230,299.460 231.067,299.866 231.992 C 300.272 232.916,300.705 233.748,300.828 233.841 C 300.952 233.934,301.359 234.619,301.732 235.364 C 302.106 236.108,302.878 237.555,303.448 238.579 C 304.019 239.602,305.598 242.496,306.957 245.008 C 308.316 247.521,309.517 249.653,309.625 249.746 C 309.733 249.839,310.200 250.742,310.663 251.752 C 311.127 252.762,311.658 253.751,311.844 253.951 C 312.030 254.151,312.602 255.152,313.114 256.176 C 313.627 257.200,314.622 259.102,315.326 260.404 L 316.606 262.772 314.939 265.819 C 314.023 267.495,312.924 269.475,312.498 270.220 C 312.071 270.964,311.302 272.410,310.789 273.432 C 310.276 274.455,309.721 275.445,309.556 275.632 C 309.266 275.962,308.339 277.686,306.370 281.557 C 305.850 282.580,305.333 283.494,305.222 283.587 C 304.990 283.781,299.133 294.512,297.682 297.403 C 297.151 298.459,296.605 299.399,296.468 299.492 C 296.332 299.585,295.808 300.499,295.305 301.523 C 294.802 302.547,293.800 304.450,293.078 305.753 C 292.356 307.056,291.446 308.731,291.056 309.475 C 290.665 310.220,289.734 311.895,288.986 313.198 C 288.238 314.501,287.223 316.404,286.729 317.428 C 286.235 318.452,285.648 319.473,285.424 319.698 C 285.200 319.923,284.667 320.951,284.240 321.983 C 283.812 323.014,283.364 323.858,283.244 323.858 C 283.124 323.858,282.658 324.657,282.208 325.635 C 281.758 326.612,281.237 327.575,281.050 327.775 C 280.863 327.975,280.332 328.964,279.868 329.974 C 279.405 330.984,278.929 331.887,278.810 331.980 C 277.835 332.743,275.412 338.409,276.060 338.409 C 276.369 338.409,279.482 336.771,280.003 336.334 C 280.692 335.756,286.000 332.657,286.300 332.657 C 286.465 332.657,286.721 332.458,286.870 332.216 C 287.019 331.973,287.978 331.344,289.002 330.818 C 290.025 330.292,290.939 329.750,291.032 329.613 C 291.125 329.476,291.810 329.033,292.555 328.629 C 294.246 327.712,297.506 325.699,298.006 325.263 C 298.213 325.083,299.050 324.596,299.868 324.182 C 300.685 323.768,301.430 323.317,301.523 323.181 C 301.616 323.045,302.327 322.612,303.103 322.219 C 303.878 321.825,305.195 321.043,306.028 320.481 C 306.861 319.919,307.693 319.459,307.876 319.459 C 308.059 319.459,308.408 319.218,308.651 318.925 C 308.895 318.631,309.866 318.002,310.808 317.527 C 311.750 317.051,312.597 316.551,312.690 316.414 C 312.783 316.277,313.469 315.836,314.213 315.434 C 314.958 315.031,316.633 314.034,317.936 313.217 C 319.239 312.401,320.914 311.399,321.658 310.990 C 322.403 310.582,323.088 310.132,323.181 309.992 C 323.274 309.851,323.985 309.414,324.761 309.021 C 325.537 308.627,326.853 307.845,327.686 307.283 C 328.520 306.721,329.351 306.261,329.534 306.261 C 329.717 306.261,330.066 306.020,330.310 305.727 C 330.553 305.433,331.524 304.804,332.466 304.329 C 333.408 303.853,334.255 303.353,334.349 303.216 C 334.442 303.079,335.203 302.622,336.041 302.200 C 336.878 301.777,337.640 301.325,337.733 301.195 C 337.922 300.929,341.241 298.892,343.316 297.766 C 344.061 297.363,344.746 296.921,344.839 296.784 C 344.932 296.647,345.770 296.133,346.701 295.642 C 347.631 295.151,349.382 294.122,350.592 293.356 C 351.802 292.590,353.325 291.662,353.976 291.294 C 354.628 290.926,355.389 290.430,355.668 290.191 C 355.948 289.953,356.861 289.415,357.699 288.996 C 358.536 288.577,359.298 288.130,359.391 288.003 C 359.557 287.777,362.489 285.990,364.504 284.887 C 365.068 284.579,365.785 284.115,366.098 283.856 C 366.411 283.597,367.504 282.944,368.528 282.404 C 369.552 281.865,370.541 281.297,370.728 281.142 C 370.914 280.987,372.208 280.160,373.604 279.303 C 375.000 278.447,376.523 277.489,376.988 277.175 C 377.453 276.861,378.519 276.233,379.355 275.781 C 380.192 275.328,381.172 274.691,381.534 274.365 C 381.896 274.040,382.354 273.773,382.551 273.772 C 382.749 273.772,383.824 273.163,384.941 272.420 C 386.058 271.676,387.166 271.068,387.405 271.067 C 387.643 271.066,387.924 270.843,388.028 270.571 C 388.133 270.299,388.547 269.976,388.948 269.854 C 389.350 269.732,390.552 269.041,391.621 268.318 C 392.689 267.596,393.717 267.005,393.905 267.005 C 394.093 267.005,394.526 266.739,394.867 266.413 C 395.208 266.087,396.312 265.373,397.321 264.826 C 399.691 263.539,400.213 263.019,399.798 262.361 C 399.448 261.807,394.161 258.424,389.723 255.916 C 388.976 255.494,388.127 254.956,387.837 254.721 C 387.547 254.486,386.624 253.929,385.787 253.483 C 384.949 253.038,384.188 252.569,384.095 252.441 C 384.002 252.314,383.426 251.954,382.816 251.641 C 381.623 251.029,377.738 248.609,377.120 248.092 C 376.914 247.919,376.076 247.438,375.259 247.021 C 374.442 246.605,373.302 245.906,372.726 245.467 C 372.150 245.029,371.573 244.670,371.444 244.670 C 371.314 244.670,370.417 244.137,369.450 243.486 C 368.482 242.834,367.517 242.301,367.305 242.301 C 367.092 242.301,366.719 242.061,366.476 241.767 C 366.232 241.473,365.261 240.844,364.319 240.369 C 363.377 239.894,362.530 239.393,362.437 239.257 C 362.343 239.120,361.630 238.685,360.852 238.291 C 360.074 237.896,359.352 237.435,359.247 237.267 C 359.143 237.098,358.257 236.544,357.279 236.034 C 356.300 235.524,355.423 234.996,355.330 234.860 C 355.237 234.724,354.628 234.344,353.976 234.017 C 353.325 233.689,352.563 233.231,352.284 232.998 C 352.005 232.765,351.091 232.194,350.254 231.728 C 349.416 231.262,347.741 230.254,346.531 229.488 C 345.321 228.722,343.742 227.776,343.021 227.386 C 342.300 226.997,341.096 226.234,340.347 225.691 C 339.598 225.148,338.798 224.704,338.569 224.704 C 338.341 224.704,337.973 224.486,337.753 224.221 C 337.532 223.955,336.562 223.326,335.596 222.823 C 334.631 222.321,333.764 221.790,333.670 221.645 C 333.577 221.499,332.863 221.024,332.084 220.589 C 329.389 219.082,326.734 217.472,326.565 217.242 C 326.472 217.115,325.711 216.664,324.873 216.240 C 324.036 215.816,322.879 215.110,322.303 214.672 C 321.727 214.234,321.118 213.870,320.949 213.865 C 320.653 213.856,316.971 211.535,316.204 210.873 C 315.995 210.694,315.006 210.134,314.004 209.629 C 313.002 209.123,312.107 208.600,312.014 208.466 C 311.920 208.332,311.214 207.857,310.443 207.411 C 306.412 205.075,305.060 204.253,304.907 204.046 C 304.814 203.920,304.277 203.581,303.714 203.293 C 303.151 203.004,301.860 202.222,300.845 201.553 C 299.830 200.885,298.806 200.338,298.569 200.338 C 298.333 200.338,298.139 200.211,298.139 200.056 C 298.139 199.901,297.301 199.336,296.277 198.800 C 295.254 198.265,294.416 197.733,294.416 197.618 C 294.416 197.503,293.655 197.052,292.724 196.616 C 291.794 196.180,291.032 195.729,291.032 195.614 C 291.032 195.498,290.210 194.987,289.206 194.479 C 288.201 193.970,287.192 193.329,286.964 193.054 C 286.736 192.780,286.410 192.555,286.238 192.555 C 286.067 192.555,285.033 191.984,283.940 191.286 C 282.848 190.588,281.453 189.712,280.841 189.340 C 280.229 188.968,279.492 188.510,279.204 188.323 C 278.916 188.136,278.047 187.621,277.273 187.179 C 276.143 186.533,275.785 186.084,275.453 184.896 C 275.225 184.083,274.934 183.418,274.806 183.418 C 274.678 183.418,274.304 182.542,273.974 181.472 C 273.644 180.402,272.952 178.613,272.437 177.496 C 271.921 176.379,271.304 174.856,271.065 174.112 C 270.825 173.367,270.522 172.682,270.390 172.589 C 270.258 172.496,269.878 171.582,269.544 170.558 C 269.210 169.535,268.502 167.742,267.971 166.574 C 267.440 165.406,267.005 164.294,267.005 164.104 C 267.005 163.913,266.687 163.118,266.298 162.336 C 265.909 161.554,265.226 159.866,264.780 158.586 C 264.335 157.306,263.841 156.087,263.684 155.879 C 263.526 155.670,263.048 154.509,262.622 153.299 C 262.196 152.090,261.727 150.948,261.580 150.761 C 261.433 150.575,260.921 149.299,260.442 147.926 C 259.963 146.553,259.442 145.259,259.284 145.050 C 259.127 144.841,258.649 143.680,258.223 142.470 C 257.797 141.261,257.328 140.118,257.181 139.932 C 257.034 139.746,256.522 138.470,256.043 137.097 C 255.564 135.724,255.037 134.429,254.873 134.221 C 254.708 134.012,254.308 133.003,253.983 131.980 C 253.658 130.956,253.209 129.814,252.984 129.442 C 252.760 129.069,252.223 127.775,251.790 126.565 C 251.358 125.355,250.821 124.061,250.596 123.689 C 250.372 123.316,249.919 122.174,249.591 121.151 C 249.262 120.127,248.810 118.985,248.587 118.613 C 248.364 118.240,247.830 116.946,247.400 115.736 C 246.970 114.526,246.498 113.384,246.350 113.198 C 246.202 113.012,245.740 111.872,245.322 110.665 C 244.904 109.459,244.206 107.761,243.770 106.894 C 243.335 106.026,242.978 105.139,242.978 104.921 C 242.978 104.704,242.614 103.737,242.168 102.771 C 241.723 101.805,241.026 100.103,240.620 98.989 C 240.214 97.874,239.766 96.808,239.626 96.620 C 239.485 96.432,239.022 95.288,238.597 94.078 C 238.171 92.868,237.482 91.117,237.066 90.186 C 236.649 89.255,236.114 87.885,235.876 87.140 C 235.639 86.396,235.310 85.616,235.145 85.407 C 234.980 85.198,234.470 83.923,234.010 82.572 C 233.551 81.221,233.045 79.945,232.886 79.737 C 232.727 79.528,232.240 78.367,231.802 77.157 C 231.365 75.948,230.906 74.882,230.782 74.788 C 230.659 74.695,230.213 73.553,229.792 72.250 C 229.371 70.948,228.843 69.577,228.619 69.205 C 228.395 68.832,227.851 67.538,227.410 66.328 C 226.969 65.118,226.518 64.052,226.408 63.959 C 226.297 63.866,225.766 62.496,225.227 60.914 C 224.688 59.332,224.134 57.960,223.996 57.865 C 223.858 57.771,223.407 56.705,222.995 55.496 C 222.583 54.288,222.131 53.147,221.991 52.961 C 221.851 52.775,221.344 51.526,220.865 50.186 C 220.385 48.846,219.843 47.475,219.659 47.140 C 219.475 46.805,219.001 45.619,218.605 44.505 C 218.209 43.390,217.762 42.324,217.611 42.136 C 217.461 41.948,216.930 40.657,216.433 39.267 C 215.936 37.878,215.405 36.583,215.254 36.391 C 215.103 36.198,214.711 35.203,214.383 34.179 C 214.055 33.156,213.583 31.937,213.334 31.472 C 212.904 30.669,211.731 27.762,209.957 23.107 C 209.517 21.949,209.003 20.731,208.817 20.400 C 208.494 19.826,207.289 16.807,205.594 12.325 C 205.166 11.194,204.643 9.975,204.432 9.618 C 204.222 9.260,203.686 7.978,203.242 6.768 C 200.544 -0.579,199.862 -1.442,199.008 1.411 " stroke="none" fill="#04b4cc" fill-rule="evenodd"></path><path id="path1" d="M199.323 214.213 C 198.951 214.585,198.646 215.090,198.646 215.334 C 198.646 215.578,198.380 216.074,198.054 216.436 C 197.728 216.797,197.093 217.778,196.641 218.614 C 196.190 219.451,195.721 220.212,195.599 220.305 C 195.478 220.398,194.933 221.311,194.390 222.335 C 193.846 223.359,193.135 224.491,192.809 224.852 C 192.483 225.213,192.217 225.656,192.217 225.836 C 192.217 226.016,191.858 226.634,191.419 227.210 C 190.981 227.786,190.275 228.942,189.851 229.780 C 189.427 230.618,188.969 231.379,188.834 231.472 C 188.699 231.565,188.339 232.128,188.034 232.724 C 187.729 233.319,187.023 234.483,186.464 235.311 C 185.905 236.138,185.448 236.955,185.448 237.126 C 185.448 237.296,185.182 237.736,184.856 238.102 C 184.530 238.468,183.975 239.297,183.622 239.942 C 182.737 241.562,181.451 243.667,179.950 245.954 C 179.253 247.016,178.681 248.057,178.681 248.267 C 178.681 248.476,178.445 248.844,178.157 249.083 C 177.869 249.322,177.248 250.330,176.778 251.324 C 176.308 252.317,175.793 253.130,175.633 253.130 C 175.473 253.130,175.256 253.400,175.151 253.730 C 175.047 254.060,174.276 255.393,173.439 256.691 C 172.602 257.990,171.916 259.219,171.914 259.423 C 171.913 259.627,171.607 260.069,171.235 260.406 C 170.863 260.743,170.558 261.154,170.558 261.319 C 170.558 261.484,169.987 262.524,169.289 263.628 C 166.160 268.581,165.482 269.716,165.482 270.001 C 165.482 270.169,165.241 270.506,164.947 270.750 C 164.653 270.995,163.960 272.041,163.407 273.076 C 162.127 275.476,160.890 277.558,160.456 278.048 C 160.269 278.258,159.714 279.200,159.222 280.141 C 158.730 281.083,158.109 282.033,157.844 282.254 C 157.578 282.474,157.360 282.801,157.360 282.979 C 157.360 283.157,156.841 284.090,156.205 285.053 C 155.570 286.015,154.781 287.373,154.451 288.071 C 154.121 288.769,153.762 289.340,153.653 289.340 C 153.544 289.340,153.077 290.059,152.616 290.937 C 152.154 291.816,151.510 292.835,151.184 293.201 C 150.859 293.567,150.592 294.003,150.592 294.169 C 150.592 294.335,150.072 295.258,149.435 296.220 C 148.799 297.182,148.089 298.388,147.858 298.900 C 147.627 299.412,147.348 299.831,147.238 299.832 C 147.129 299.833,146.582 300.708,146.024 301.778 C 145.465 302.847,144.891 303.774,144.748 303.838 C 144.604 303.901,144.208 304.510,143.867 305.191 C 143.183 306.558,140.963 310.296,140.519 310.829 C 140.364 311.015,139.864 311.853,139.408 312.690 C 138.952 313.528,138.382 314.420,138.142 314.674 C 137.902 314.927,137.324 315.841,136.856 316.704 C 135.715 318.812,134.466 320.906,134.102 321.320 C 133.939 321.506,133.356 322.496,132.808 323.519 C 132.259 324.543,131.544 325.676,131.218 326.037 C 130.893 326.398,130.626 326.840,130.626 327.020 C 130.626 327.200,130.267 327.819,129.829 328.394 C 129.390 328.970,128.685 330.127,128.261 330.964 C 127.836 331.802,127.378 332.563,127.242 332.657 C 127.106 332.750,126.664 333.435,126.259 334.179 C 125.855 334.924,125.205 336.038,124.815 336.656 C 123.690 338.439,124.425 338.775,126.821 337.574 C 127.890 337.038,128.841 336.511,128.934 336.404 C 129.027 336.297,130.017 335.764,131.134 335.220 C 132.250 334.676,133.240 334.130,133.333 334.008 C 133.426 333.886,134.264 333.418,135.195 332.968 C 136.125 332.518,136.963 332.056,137.056 331.942 C 137.149 331.828,138.139 331.297,139.255 330.762 C 140.372 330.227,141.362 329.693,141.455 329.576 C 141.548 329.459,142.310 329.018,143.147 328.596 C 143.985 328.173,144.746 327.733,144.839 327.616 C 144.932 327.499,145.835 327.025,146.845 326.562 C 147.855 326.098,148.844 325.566,149.044 325.380 C 149.244 325.193,150.207 324.672,151.184 324.222 C 152.162 323.772,152.961 323.311,152.961 323.199 C 152.961 323.086,153.951 322.562,155.161 322.035 C 156.371 321.508,157.360 320.962,157.360 320.821 C 157.360 320.681,158.048 320.303,158.889 319.982 C 159.730 319.661,160.615 319.201,160.855 318.961 C 161.095 318.721,162.196 318.097,163.300 317.574 C 164.405 317.052,165.462 316.484,165.649 316.314 C 166.015 315.980,167.765 315.048,171.151 313.385 C 172.314 312.813,173.266 312.233,173.267 312.095 C 173.268 311.957,173.991 311.555,174.874 311.201 C 175.758 310.847,176.735 310.340,177.045 310.074 C 177.356 309.807,178.498 309.145,179.583 308.602 C 180.669 308.059,182.547 307.066,183.756 306.397 C 186.561 304.844,189.527 303.246,191.319 302.320 C 192.092 301.921,192.878 301.455,193.065 301.284 C 193.252 301.113,194.242 300.559,195.265 300.052 C 196.287 299.546,197.764 298.755,198.547 298.295 C 200.009 297.436,201.490 297.671,202.902 298.985 C 203.101 299.171,204.091 299.702,205.101 300.166 C 206.111 300.629,207.014 301.109,207.107 301.232 C 207.285 301.468,210.182 303.068,213.016 304.495 C 213.939 304.960,214.888 305.534,215.125 305.770 C 215.361 306.006,216.243 306.463,217.084 306.784 C 217.924 307.105,218.613 307.483,218.613 307.623 C 218.613 307.764,219.602 308.310,220.812 308.837 C 222.022 309.364,223.012 309.888,223.012 310.001 C 223.012 310.113,223.811 310.574,224.788 311.024 C 225.766 311.474,226.729 311.995,226.929 312.182 C 227.129 312.368,228.118 312.901,229.128 313.366 C 230.138 313.831,231.170 314.406,231.421 314.645 C 231.672 314.883,232.428 315.308,233.101 315.590 C 233.774 315.871,234.406 316.211,234.506 316.346 C 234.605 316.481,235.601 317.029,236.717 317.564 C 237.834 318.099,238.824 318.641,238.917 318.767 C 239.010 318.894,239.848 319.357,240.778 319.797 C 241.709 320.237,242.547 320.701,242.640 320.828 C 242.733 320.955,243.723 321.489,244.839 322.014 C 245.956 322.539,247.053 323.151,247.277 323.373 C 247.501 323.596,248.376 324.062,249.221 324.410 C 250.067 324.758,250.759 325.129,250.760 325.234 C 250.761 325.339,251.713 325.872,252.876 326.418 C 254.040 326.964,255.068 327.505,255.161 327.620 C 255.254 327.734,256.015 328.173,256.853 328.596 C 257.690 329.018,258.452 329.459,258.545 329.576 C 258.638 329.693,259.628 330.227,260.745 330.762 C 261.861 331.297,262.851 331.828,262.944 331.942 C 263.037 332.056,263.875 332.518,264.805 332.968 C 265.736 333.418,266.574 333.892,266.667 334.022 C 266.760 334.152,267.750 334.684,268.866 335.206 C 269.983 335.727,270.973 336.260,271.066 336.390 C 271.303 336.721,274.938 338.409,275.413 338.409 C 276.069 338.409,275.855 337.622,274.704 335.802 C 273.502 333.903,272.631 332.458,271.574 330.613 C 271.197 329.954,270.548 328.981,270.131 328.452 C 269.715 327.922,269.374 327.341,269.374 327.161 C 269.374 326.980,268.917 326.155,268.358 325.328 C 267.800 324.500,267.093 323.336,266.788 322.741 C 266.483 322.145,266.122 321.582,265.986 321.489 C 265.850 321.396,265.322 320.519,264.812 319.540 C 264.302 318.562,263.747 317.675,263.579 317.571 C 263.410 317.467,263.067 316.891,262.817 316.292 C 262.566 315.692,262.150 314.979,261.891 314.707 C 261.632 314.436,260.976 313.376,260.432 312.352 C 259.889 311.328,259.345 310.415,259.223 310.321 C 259.101 310.228,258.633 309.468,258.181 308.631 C 257.730 307.795,257.094 306.814,256.768 306.452 C 256.442 306.091,256.173 305.633,256.169 305.435 C 256.162 305.115,253.576 300.858,252.866 300.000 C 252.713 299.814,252.138 298.824,251.589 297.800 C 251.041 296.777,250.326 295.644,250.000 295.283 C 249.674 294.922,249.408 294.427,249.408 294.183 C 249.408 293.939,249.141 293.464,248.816 293.128 C 248.490 292.791,247.766 291.650,247.208 290.591 C 246.650 289.532,246.105 288.665,245.997 288.664 C 245.889 288.664,245.444 287.902,245.008 286.971 C 244.573 286.041,244.117 285.279,243.995 285.279 C 243.874 285.279,243.423 284.556,242.994 283.672 C 242.564 282.788,242.042 281.912,241.834 281.726 C 241.626 281.540,241.104 280.668,240.674 279.788 C 240.244 278.908,239.759 278.106,239.597 278.005 C 239.434 277.905,238.878 276.987,238.361 275.967 C 237.845 274.947,237.328 274.112,237.212 274.112 C 237.097 274.112,236.646 273.350,236.210 272.420 C 235.774 271.489,235.302 270.728,235.161 270.728 C 235.021 270.728,234.521 269.915,234.051 268.921 C 233.581 267.927,232.960 266.919,232.672 266.680 C 232.385 266.441,232.149 266.105,232.149 265.934 C 232.149 265.763,231.552 264.677,230.822 263.522 C 228.986 260.616,227.959 258.916,227.207 257.540 C 226.854 256.894,226.299 256.066,225.973 255.699 C 225.647 255.333,225.381 254.911,225.381 254.761 C 225.381 254.532,223.143 250.764,222.000 249.069 C 221.550 248.402,219.390 244.818,218.533 243.316 C 218.161 242.665,217.761 242.056,217.642 241.963 C 217.524 241.870,217.074 241.071,216.643 240.187 C 216.212 239.303,215.658 238.380,215.414 238.135 C 215.169 237.891,214.626 237.014,214.207 236.189 C 213.788 235.363,213.334 234.611,213.198 234.518 C 213.062 234.425,212.630 233.717,212.239 232.946 C 211.848 232.174,211.333 231.336,211.094 231.084 C 210.855 230.832,210.307 229.903,209.875 229.019 C 209.443 228.135,208.986 227.411,208.860 227.410 C 208.733 227.410,208.184 226.496,207.640 225.380 C 207.096 224.264,206.535 223.350,206.394 223.350 C 206.252 223.350,206.044 223.057,205.930 222.699 C 205.817 222.341,205.340 221.483,204.872 220.793 C 204.404 220.103,203.633 218.797,203.159 217.891 C 202.686 216.985,202.191 216.244,202.060 216.244 C 201.929 216.244,201.554 215.635,201.225 214.890 C 200.548 213.354,200.278 213.258,199.323 214.213 " stroke="none" fill="#b4d44c" fill-rule="evenodd"></path><path id="path2" d="" stroke="none" fill="#30c4d0" fill-rule="evenodd"></path><path id="path3" d="" stroke="none" fill="#30c4d0" fill-rule="evenodd"></path><path id="path4" d="" stroke="none" fill="#30c4d0" fill-rule="evenodd"></path></g></svg>